<mxfile host="www.draw.io" modified="2019-10-25T23:34:26.758Z" agent="Mozilla/5.0 (Windows NT 10.0; Win64; x64) AppleWebKit/537.36 (KHTML, like Gecko) Chrome/77.0.3865.120 Safari/537.36" etag="_UDdRvek-JUY500eMRtE" version="12.1.7" type="github" pages="1">
  <diagram id="Cg5TQznFIi2fOIy1NgRE" name="Page-1">
    <mxGraphModel dx="1422" dy="794" grid="1" gridSize="10" guides="1" tooltips="1" connect="1" arrows="1" fold="1" page="1" pageScale="1" pageWidth="1100" pageHeight="850" math="0" shadow="0">
      <root>
        <mxCell id="0"/>
        <mxCell id="1" parent="0"/>
        <mxCell id="4A5gEsoZY53VQ-Z7-Xwo-21" value="" style="rounded=0;whiteSpace=wrap;html=1;" vertex="1" parent="1">
          <mxGeometry x="370" y="240" width="430" height="310" as="geometry"/>
        </mxCell>
        <mxCell id="4A5gEsoZY53VQ-Z7-Xwo-1" value="User" style="shape=umlActor;verticalLabelPosition=bottom;labelBackgroundColor=#ffffff;verticalAlign=top;html=1;outlineConnect=0;" vertex="1" parent="1">
          <mxGeometry x="590" y="570" width="50" height="90" as="geometry"/>
        </mxCell>
        <mxCell id="4A5gEsoZY53VQ-Z7-Xwo-4" value="" style="shape=image;html=1;verticalAlign=top;verticalLabelPosition=bottom;labelBackgroundColor=#ffffff;imageAspect=0;aspect=fixed;image=https://cdn4.iconfinder.com/data/icons/video-game-adicts/1024/videogame_icons-10-128.png" vertex="1" parent="1">
          <mxGeometry x="430" y="590" width="80" height="80" as="geometry"/>
        </mxCell>
        <mxCell id="4A5gEsoZY53VQ-Z7-Xwo-7" value="" style="endArrow=classic;html=1;entryX=1;entryY=0.5;entryDx=0;entryDy=0;" edge="1" parent="1" target="4A5gEsoZY53VQ-Z7-Xwo-4">
          <mxGeometry width="50" height="50" relative="1" as="geometry">
            <mxPoint x="590" y="630" as="sourcePoint"/>
            <mxPoint x="340" y="600" as="targetPoint"/>
          </mxGeometry>
        </mxCell>
        <mxCell id="4A5gEsoZY53VQ-Z7-Xwo-13" style="edgeStyle=orthogonalEdgeStyle;rounded=0;orthogonalLoop=1;jettySize=auto;html=1;exitX=0.5;exitY=0;exitDx=0;exitDy=0;entryX=0.5;entryY=1;entryDx=0;entryDy=0;" edge="1" parent="1" source="4A5gEsoZY53VQ-Z7-Xwo-9" target="4A5gEsoZY53VQ-Z7-Xwo-12">
          <mxGeometry relative="1" as="geometry"/>
        </mxCell>
        <mxCell id="4A5gEsoZY53VQ-Z7-Xwo-9" value="Controller USB Driver" style="rounded=1;whiteSpace=wrap;html=1;" vertex="1" parent="1">
          <mxGeometry x="410" y="450" width="120" height="80" as="geometry"/>
        </mxCell>
        <mxCell id="4A5gEsoZY53VQ-Z7-Xwo-10" style="edgeStyle=orthogonalEdgeStyle;rounded=0;orthogonalLoop=1;jettySize=auto;html=1;exitX=0.5;exitY=0;exitDx=0;exitDy=0;entryX=0.5;entryY=1;entryDx=0;entryDy=0;" edge="1" parent="1" source="4A5gEsoZY53VQ-Z7-Xwo-4" target="4A5gEsoZY53VQ-Z7-Xwo-9">
          <mxGeometry relative="1" as="geometry">
            <mxPoint x="470" y="570" as="targetPoint"/>
          </mxGeometry>
        </mxCell>
        <mxCell id="4A5gEsoZY53VQ-Z7-Xwo-16" style="edgeStyle=orthogonalEdgeStyle;rounded=0;orthogonalLoop=1;jettySize=auto;html=1;exitX=1;exitY=0.5;exitDx=0;exitDy=0;entryX=0;entryY=0.5;entryDx=0;entryDy=0;" edge="1" parent="1" source="4A5gEsoZY53VQ-Z7-Xwo-12" target="4A5gEsoZY53VQ-Z7-Xwo-15">
          <mxGeometry relative="1" as="geometry"/>
        </mxCell>
        <mxCell id="4A5gEsoZY53VQ-Z7-Xwo-12" value="ROS joy_node" style="rounded=1;whiteSpace=wrap;html=1;" vertex="1" parent="1">
          <mxGeometry x="410" y="270" width="120" height="80" as="geometry"/>
        </mxCell>
        <mxCell id="4A5gEsoZY53VQ-Z7-Xwo-15" value="ROV &amp;lt;-&amp;gt; Base station Comms Manager" style="rounded=1;whiteSpace=wrap;html=1;" vertex="1" parent="1">
          <mxGeometry x="620" y="270" width="120" height="80" as="geometry"/>
        </mxCell>
        <mxCell id="4A5gEsoZY53VQ-Z7-Xwo-17" value="joy rostopic" style="text;html=1;strokeColor=none;fillColor=none;align=center;verticalAlign=middle;whiteSpace=wrap;rounded=0;" vertex="1" parent="1">
          <mxGeometry x="525" y="281" width="100" height="20" as="geometry"/>
        </mxCell>
        <mxCell id="4A5gEsoZY53VQ-Z7-Xwo-19" value="OS Provided Driver-Application Communication&lt;br&gt;" style="text;html=1;strokeColor=none;fillColor=none;align=center;verticalAlign=middle;whiteSpace=wrap;rounded=0;" vertex="1" parent="1">
          <mxGeometry x="469.5" y="390" width="160" height="20" as="geometry"/>
        </mxCell>
        <mxCell id="4A5gEsoZY53VQ-Z7-Xwo-20" value="Base Station Computer" style="text;html=1;strokeColor=none;fillColor=none;align=center;verticalAlign=middle;whiteSpace=wrap;rounded=0;fontStyle=1" vertex="1" parent="1">
          <mxGeometry x="640" y="530" width="170" height="20" as="geometry"/>
        </mxCell>
        <mxCell id="4A5gEsoZY53VQ-Z7-Xwo-22" value="&lt;b&gt;Note: &lt;/b&gt;The joy rostopic contains a field for all axis of the joystick as well as the buttons" style="text;html=1;strokeColor=none;fillColor=none;align=center;verticalAlign=middle;whiteSpace=wrap;rounded=0;" vertex="1" parent="1">
          <mxGeometry x="710" y="570" width="250" height="70" as="geometry"/>
        </mxCell>
        <mxCell id="4A5gEsoZY53VQ-Z7-Xwo-23" value="USB Connection" style="text;html=1;strokeColor=none;fillColor=none;align=center;verticalAlign=middle;whiteSpace=wrap;rounded=0;" vertex="1" parent="1">
          <mxGeometry x="485" y="560" width="40" height="20" as="geometry"/>
        </mxCell>
        <mxCell id="4A5gEsoZY53VQ-Z7-Xwo-24" value="Physical Interaction" style="text;html=1;strokeColor=none;fillColor=none;align=center;verticalAlign=middle;whiteSpace=wrap;rounded=0;" vertex="1" parent="1">
          <mxGeometry x="525" y="640" width="40" height="20" as="geometry"/>
        </mxCell>
      </root>
    </mxGraphModel>
  </diagram>
</mxfile>
